<svg width="77" height="57" viewBox="0 0 77 57" fill="none" xmlns="http://www.w3.org/2000/svg">
<g clip-path="url(#clip0_22_65)">
<path d="M34.121 26.2871C35.0006 20.8549 31.3562 15.7306 25.9808 14.8417C20.6055 13.9527 15.5349 17.6358 14.6552 23.0679C13.7756 28.5001 17.4201 33.6244 22.7954 34.5133C28.1707 35.4023 33.2413 31.7192 34.121 26.2871Z" fill="#FF9443"/>
<path d="M24.3897 10.8863C23.7448 10.8863 23.2138 10.3497 23.2138 9.69805V1.1883C23.2138 0.536651 23.7448 0 24.3897 0C25.0345 0 25.5655 0.536651 25.5655 1.1883V9.69805C25.6035 10.3497 25.0724 10.8863 24.3897 10.8863Z" fill="#FF9443"/>
<path d="M24.3897 49.3335C23.7448 49.3335 23.2138 48.7969 23.2138 48.1453V39.6355C23.2138 38.9839 23.7448 38.4472 24.3897 38.4472C25.0345 38.4472 25.5655 38.9839 25.5655 39.6355V48.1453C25.6035 48.7969 25.0724 49.3335 24.3897 49.3335Z" fill="#FF9443"/>
<path d="M34.0241 14.9495C33.5689 14.4896 33.5689 13.7229 34.0241 13.2629L39.9793 7.24477C40.4345 6.78478 41.1931 6.78478 41.6483 7.24477C42.1034 7.70476 42.1034 8.4714 41.6483 8.93139L35.6931 14.9495C35.2379 15.4095 34.5172 15.4095 34.0241 14.9495Z" fill="#FF9443"/>
<path d="M7.13105 42.0888C6.67588 41.6288 6.67588 40.8621 7.13105 40.4022L13.0862 34.384C13.5414 33.924 14.3 33.924 14.7552 34.384C15.2104 34.844 15.2104 35.6106 14.7552 36.0706L8.80002 42.0888C8.34485 42.5871 7.62416 42.5871 7.13105 42.0888Z" fill="#FF9443"/>
<path d="M38.0449 24.6476C38.0449 23.9959 38.5759 23.4593 39.2207 23.4593H47.6414C48.2862 23.4593 48.8173 23.9959 48.8173 24.6476C48.8173 25.2992 48.2862 25.8359 47.6414 25.8359H39.2207C38.538 25.8742 38.0449 25.3376 38.0449 24.6476Z" fill="#FF9443"/>
<path d="M0 24.6476C0 23.9959 0.531034 23.4593 1.17586 23.4593H9.59655C10.2414 23.4593 10.7724 23.9959 10.7724 24.6476C10.7724 25.2992 10.2414 25.8359 9.59655 25.8359H1.17586C0.531034 25.8742 0 25.3376 0 24.6476Z" fill="#FF9443"/>
<path d="M34.0241 34.384C34.4793 33.924 35.2379 33.924 35.6931 34.384L41.6483 40.4021C42.1034 40.8621 42.1034 41.6288 41.6483 42.0888C41.1931 42.5488 40.4345 42.5488 39.9793 42.0888L34.0241 36.0706C33.5689 35.6106 33.5689 34.8823 34.0241 34.384Z" fill="#FF9443"/>
<path d="M7.13105 7.20644C7.58622 6.74645 8.34485 6.74645 8.80002 7.20644L14.7931 13.2246C15.2483 13.6846 15.2483 14.4512 14.7931 14.9112C14.3379 15.3712 13.5793 15.3712 13.1242 14.9112L7.13105 8.93139C6.67588 8.43307 6.67588 7.70476 7.13105 7.20644Z" fill="#FF9443"/>
<path d="M69.6414 42.0888C69.6034 42.0888 69.5655 42.0888 69.5655 42.0888C70.1345 40.7088 70.4758 39.2139 70.4758 37.6422C70.4758 31.4324 65.5069 26.4109 59.3621 26.4109C57.2 26.4109 55.1517 27.0626 53.4448 28.1359C51.131 22.4244 45.5931 18.4378 39.1069 18.4378C30.5345 18.4378 23.631 25.4526 23.631 34.0774C23.631 34.729 23.6689 35.3806 23.7448 35.994C23.7069 35.994 23.6689 35.994 23.631 35.994C17.9034 35.994 13.2379 40.7088 13.2379 46.497C13.2379 52.2852 17.9034 57 23.631 57H69.6414C73.7 57 77 53.6651 77 49.5636C77 45.4237 73.7 42.0888 69.6414 42.0888Z" fill="url(#paint0_radial_22_65)"/>
</g>
<defs>
<radialGradient id="paint0_radial_22_65" cx="0" cy="0" r="1" gradientUnits="userSpaceOnUse" gradientTransform="translate(77 23.2581) rotate(151.06) scale(53.1274 45.1765)">
<stop stop-color="#969BFF"/>
<stop offset="1" stop-color="#656CEE"/>
</radialGradient>
<clipPath id="clip0_22_65">
<rect width="77" height="57" fill="white"/>
</clipPath>
</defs>
</svg>
