<svg xmlns="http://www.w3.org/2000/svg" viewBox="0 0 48 48"><path d="M33.484375 4.984375 A 1.50015 1.50015 0 0 0 32.439453 7.5605469L37.878906 13L6.5 13 A 1.50015 1.50015 0 1 0 6.5 16L37.878906 16L32.439453 21.439453 A 1.50015 1.50015 0 1 0 34.560547 23.560547L42.560547 15.560547 A 1.50015 1.50015 0 0 0 42.560547 13.439453L34.560547 5.4394531 A 1.50015 1.50015 0 0 0 33.484375 4.984375 z M 14.470703 23.986328 A 1.50015 1.50015 0 0 0 13.439453 24.439453L5.4394531 32.439453 A 1.50015 1.50015 0 0 0 5.4394531 34.560547L13.439453 42.560547 A 1.50015 1.50015 0 1 0 15.560547 40.439453L10.121094 35L41.5 35 A 1.50015 1.50015 0 1 0 41.5 32L10.121094 32L15.560547 26.560547 A 1.50015 1.50015 0 0 0 14.470703 23.986328 z"/></svg>