<svg xmlns="http://www.w3.org/2000/svg" viewBox="0 0 48 48"><path d="M24 4C12.972066 4 4 12.972074 4 24C4 35.027926 12.972066 44 24 44C35.027934 44 44 35.027926 44 24C44 12.972074 35.027934 4 24 4 z M 18 16.5C19.381 16.5 20.5 17.619 20.5 19C20.5 20.381 19.381 21.5 18 21.5C16.619 21.5 15.5 20.381 15.5 19C15.5 17.619 16.619 16.5 18 16.5 z M 30 16.5C31.381 16.5 32.5 17.619 32.5 19C32.5 20.381 31.381 21.5 30 21.5C28.619 21.5 27.5 20.381 27.5 19C27.5 17.619 28.619 16.5 30 16.5 z M 15.650391 28.003906C16.130547 27.969238 16.6175 28.166016 16.9375 28.572266C18.6515 30.751266 21.226 32 24 32C26.774 32 29.3485 30.750266 31.0625 28.572266C31.5745 27.922266 32.514969 27.808266 33.167969 28.322266C33.817969 28.833266 33.932922 29.776734 33.419922 30.427734C31.133922 33.332734 27.7 35 24 35C20.3 35 16.866078 33.333734 14.580078 30.427734C14.067078 29.776734 14.182031 28.832313 14.832031 28.320312C15.076531 28.127562 15.362297 28.024707 15.650391 28.003906 z"/></svg>